<svg width="161" height="56" viewBox="0 0 161 56" xmlns="http://www.w3.org/2000/svg" xmlns:xlink="http://www.w3.org/1999/xlink"><defs><path id="a" d="M0 .117h47.447v55.16H0z"/><path id="c" d="M.33.32h106.506v21.719H.33z"/></defs><g fill="none" fill-rule="evenodd"><g transform="translate(0 .165)"><mask id="b" fill="#fff"><use xlink:href="#a"/></mask><path d="M36.374 11.148c3.406 0 5.8 2.478 5.8 6.135 0 3.657-2.394 6.135-5.8 6.135-3.41 0-5.804-2.478-5.804-6.135 0-3.657 2.395-6.135 5.804-6.135zM22.368 38.399c3.406 0 5.8 2.478 5.8 6.135 0 3.657-2.394 6.135-5.8 6.135-3.409 0-5.804-2.478-5.804-6.135 0-3.657 2.395-6.135 5.804-6.135zM5.23 42.022h6.303a12.93 12.93 0 00-.241 2.512c0 5.45 3.224 9.558 8.092 10.743h5.993c4.608-1.115 7.707-4.825 8.034-9.856v9.856h5.337V43.861c0-3.493 1.984-5.16 4.696-5.16.93 0 1.82.122 2.67.406v-5.479a9.418 9.418 0 00-1.874-.163c-2.115 0-3.947.73-5.658 2.636l-.448-2.31h-4.723v9.835c-.404-6.016-4.82-10.185-11.043-10.185-5.45 0-9.556 3.21-10.733 8.112v-4.235H5.23v-1.993c0-1.829.79-2.763 2.295-2.763 1.224 0 2.368.426 3.33.955l2.088-4.124c-1.485-.996-3.331-1.768-5.98-1.768a8.82 8.82 0 00-1.52.13V7.83L18.98 28.125h6.426v-9.161c.722 5.597 5.053 9.411 10.969 9.411 6.53 0 11.073-4.552 11.073-11.092 0-6.5-4.542-11.092-11.073-11.092-5.916 0-10.247 3.78-10.97 9.402V.117h-5.443v20.336L6.386.117H0v28.008h4.085C1.41 29.16 0 31.752 0 35.264v20.013h5.23V42.022z" fill="#FFF" mask="url(#b)"/></g><g transform="translate(53.11 33.404)"><mask id="d" fill="#fff"><use xlink:href="#c"/></mask><path d="M73.606 13.803C72.002 8.317 63.421 9.28 63.421 6.421c0-.968.89-1.656 2.63-1.656 1.74 0 3.481.688 5.02 1.9l2.535-3.836v10.974zm-8.161 4.137c-1.984 0-3.929-.727-5.465-1.94l-1.813 3.305V7.155c.341 7.017 10.435 5.628 10.435 8.965 0 1.173-1.176 1.82-3.157 1.82zm-12.497.974l-3.525-3.48c-1.134 1.414-2.673 2.021-4.373 2.021-3.399 0-5.91-2.425-5.91-6.102 0-3.678 2.511-6.102 5.91-6.102 1.7 0 3.24.605 4.373 2.02l3.525-3.48v15.123zm-24.211-7.36c0 3.83-2.868 5.968-5.94 5.968-3.43 0-5.897-2.661-5.897-6.17 0-3.508 2.466-6.17 5.897-6.17 3.072 0 5.94 2.139 5.94 5.969v.404zm78.1 10.485V9.417c0-5.566-3.162-9.074-8.148-9.074-3.118 0-5.428 1.372-6.968 3.953-1.297-2.5-3.686-3.953-6.807-3.953-2.554 0-4.62.968-6.078 2.863l-.528-2.54h-4.702v2.04C71.471 1.154 68.902.318 66.13.318c-4.625 0-7.77 2.466-7.963 6.109V.666h-5.219v2.966C50.973 1.502 48.368.319 45.05.319c-5.945 0-10.338 3.801-11.064 9.376V.666h-4.684l-.526 2.46C27.161 1.391 24.737.342 21.952.342c-3.997 0-7.228 1.993-8.948 5.233V.506a9.422 9.422 0 00-1.869-.163c-2.11 0-3.939.726-5.645 2.622L5.043.666H.33V22.04h5.325V10.683c0-3.474 1.98-5.132 4.686-5.132a8.45 8.45 0 012.496.352v-.001c-.765 1.57-1.186 3.412-1.186 5.45 0 5.445 3.049 9.54 7.617 10.687h5.28c1.685-.435 3.14-1.292 4.228-2.46l.526 2.46h4.684v-9.03c.598 4.591 3.683 7.976 8.071 9.03h5.927c1.967-.496 3.613-1.509 4.964-2.966v2.966h5.219v-1.433c1.136.646 2.447 1.133 3.85 1.433h6.305c2.726-.677 4.625-2.305 5.284-4.519v4.519h5.219v-10.67c0-4.16 1.948-6.142 4.793-6.142 2.478 0 3.94 1.576 3.94 4.729v12.083h5.22v-10.67c0-4.16 1.948-6.142 4.793-6.142 2.438 0 3.94 1.576 3.94 4.729v12.083h5.325z" fill="#FFF" mask="url(#d)"/></g><path d="M111.323 26.541c-.611-.688-1.52-1.096-2.603-1.096-.081 0-.16.004-.24.008 1.64-1.743 2.66-4.09 2.843-6.836v7.924zm-11.006-2.727c-3.398 0-5.785-2.466-5.785-6.106 0-3.64 2.387-6.106 5.785-6.106 3.394 0 5.78 2.466 5.78 6.106 0 3.64-2.386 6.106-5.78 6.106zm-21.917 0c-3.397 0-5.784-2.466-5.784-6.106 0-3.64 2.387-6.106 5.784-6.106 3.395 0 5.782 2.466 5.782 6.106 0 3.64-2.387 6.106-5.782 6.106zm66.116 4.684V15.87c0-5.569-3.158-9.08-8.138-9.08-3.114 0-5.422 1.374-6.96 3.956-1.296-2.501-3.682-3.955-6.8-3.955-2.552 0-4.615.97-6.071 2.865l-.528-2.542h-4.696v9.692c-.402-5.988-4.805-10.137-11.006-10.137-5.974 0-10.329 3.862-10.96 9.58-.63-5.686-4.949-9.58-10.957-9.58-4.413 0-7.941 2.108-9.739 5.515v-5.23a9.397 9.397 0 00-1.867-.163c-2.108 0-3.935.726-5.64 2.623l-.446-2.3H56v21.385h5.32V17.136C61.32 13.659 63.297 12 66 12c.89 0 1.744.113 2.562.373-.775 1.546-1.2 3.347-1.2 5.334 0 6.47 4.57 11.04 11.038 11.04 6.011 0 10.331-3.864 10.958-9.58.635 5.686 4.987 9.58 10.959 9.58 1.916 0 3.659-.394 5.166-1.114-.13.38-.201.8-.201 1.249 0 2.021 1.416 3.437 3.438 3.437 2.02 0 3.437-1.416 3.437-3.437 0-.13-.007-.26-.018-.385h4.503V17.822c0-4.163 1.947-6.145 4.788-6.145 2.475 0 3.936 1.577 3.936 4.731v12.09h5.213V17.822c0-4.163 1.946-6.145 4.788-6.145 2.436 0 3.936 1.577 3.936 4.731v12.09h5.213z" fill="#FFF"/></g></svg>